<svg xmlns="http://www.w3.org/2000/svg" xmlns:xlink="http://www.w3.org/1999/xlink" viewBox="0 0 1200 1000" id="online-business-meetings">
  <defs>
    <symbol id="c" viewBox="0 0 250 128">
      <rect width="248.503" height="126.506" x=".748" y=".747" fill="#fad0c9" rx="36.682" ry="36.682"></rect>
      <path fill="#32ce95" d="m103.75895,64.94492c0,21.82004-17.75333,39.50702-39.62722,39.45406-21.17472-.05127-38.78285-17.12466-39.41327-38.24987-.67839-22.73287,17.92358-41.30652,40.69712-40.64102l-5.06804,39.0177c-.2523,1.94242,1.46185,3.56834,3.39261,3.21796l39.77281-7.21772c.1669,1.44667.24599,2.9284.24599,4.4189Z"></path>
      <rect width="16.69" height="16.658" x="130.949" y="36.37" fill="#f2f2f2" rx="4.455" ry="4.455"></rect>
      <rect width="69.396" height="16.658" x="152.91" y="36.37" fill="#f2f2f2" rx="4.455" ry="4.455"></rect>
      <rect width="69.396" height="16.658" x="152.91" y="71.44" fill="#f2f2f2" rx="4.455" ry="4.455"></rect>
      <rect width="16.69" height="16.658" x="130.949" y="71.44" fill="#f2f2f2" rx="4.455" ry="4.455"></rect>
      <path fill="#f90065" d="m65.6564,60.57274l5.65476-43.53962c.1094-.84237.80673-1.48027,1.6565-1.5264,11.43442-.62063,38.23683,1.70093,40.60608,37.12669.0591.88373-.5689,1.67072-1.44197,1.82916l-44.41883,8.06082c-1.17038.21239-2.20948-.77319-2.05655-1.95066Z"></path>
      <path d="M1.49701 90.60603H0v-53.21206C0 16.77529 16.80721 0 37.46511 0v1.49416C17.6327 1.49416 1.49701 17.59922 1.49701 37.39397v53.21206ZM212.53489 128h-77.68642v-1.49416h77.68642c19.83241 0 35.9681-16.10506 35.9681-35.89981v-53.21206h1.49701v53.21206c0 20.61868-16.80721 37.39397-37.46511 37.39397Z"></path>
    </symbol>
    <symbol id="b" viewBox="0 0 161 143">
      <path fill="#f9f9ff" d="m124.10386,0H37.64714C17.26995,0,.751,16.45283.751,36.74845v95.92534c0,30.92397,15.02334-22.94359,38.05914-22.94359h85.29373c20.37718,0,36.89614-16.45283,36.89614-36.74845v-36.2333c0-20.29562-16.51895-36.74845-36.89614-36.74845Z"></path>
      <path fill="#ffcc83" d="m82.61116,17.73841l9.64248,19.45959c.28193.56897.82691.96334,1.45733,1.05458l21.56124,3.12049c1.58756.22976,2.22147,2.17291,1.0727,3.28821l-15.60186,15.14718c-.45618.44288-.66434,1.08098-.55665,1.70634l3.6831,21.38816c.27119,1.57482-1.3884,2.77575-2.80836,2.03222l-19.28496-10.09812c-.56387-.29526-1.2375-.29526-1.80136,0l-19.28496,10.09812c-1.41996.74353-3.07954-.45741-2.80836-2.03222l3.6831-21.38816c.10769-.62536-.10047-1.26346-.55665-1.70634l-15.60186-15.14718c-1.14877-1.11529-.51486-3.05844,1.0727-3.28821l21.56124-3.12049c.63042-.09124,1.1754-.4856,1.45733-1.05458l9.64248-19.45959c.70998-1.43282,2.76134-1.43282,3.47132,0Z"></path>
      <path d="m2.9186,143c-.17997,0-.357-.02728-.53208-.08086-1.69502-.52508-2.38652-3.49336-2.38652-10.24532V36.74855h1.50233v95.92528c0,7.79821,1.01818,8.71977,1.33019,8.81621,1.16294.35362,4.4268-4.3896,7.31801-8.57559,6.58152-9.53028,16.52959-23.93237,28.65977-23.93237h85.29367v1.49632H38.8103c-11.34086,0-21.01801,14.01242-27.42249,23.28455-3.90157,5.6492-6.37905,9.23705-8.46921,9.23705Z"></path>
      <path d="m59.78626,85.90795c-.55457,0-1.10523-.1734-1.57667-.51436-.83333-.60301-1.24216-1.6064-1.06807-2.61759l3.68248-21.38784c.06553-.38285-.06162-.77349-.34135-1.04528l-15.60041-15.14538c-.73747-.71601-.99862-1.76714-.68075-2.74325.31885-.97612,1.14925-1.67362,2.16841-1.82169l21.5628-3.12026c.38439-.05553.71791-.2981.89201-.64685l9.64096-19.45802c.45579-.91961,1.3791-1.49145,2.40902-1.49145,1.0309,0,1.95323.57184,2.40999,1.49145l9.64291,19.45899c.17214.34875.50567.58937.89201.64587l21.55987,3.12026c1.02014.14807,1.85151.84558,2.16939,1.82169.31885.97612.05771,2.02724-.67977,2.74325l-15.60139,15.14635c-.27973.27179-.40688.66146-.34135,1.04431l3.68346,21.38784c.1741,1.01216-.23572,2.01555-1.07002,2.61856-.83235.60204-1.91606.67899-2.82861.20263l-19.28387-10.09724c-.34624-.1812-.75801-.18217-1.1023-.00097l-19.28583,10.09822c-.39612.2075-.8255.31076-1.25292.31076Zm21.08843-68.49565c-.46068,0-.85778.24549-1.06122.65756l-9.64194,19.45899c-.39319.79005-1.14925,1.33753-2.02267,1.46417l-21.5628,3.12026c-.45579.06624-.81279.36629-.95559.80271-.14182.4374-.03032.88941.30027,1.20992l15.60139,15.14635c.63282.61567.92233,1.50119.77269,2.36917l-3.68248,21.38784c-.07825.45299.09781.88454.47046,1.15439.37265.26887.83822.30297,1.24705.08865l19.28583-10.09724c.78247-.4111,1.71849-.4111,2.50096.00097l19.28387,10.09627c.40982.21432.87343.18022,1.24705-.08865.37265-.26984.54968-.7014.47144-1.15439l-3.68346-21.38784c-.14965-.86896.13987-1.75448.77366-2.36917l15.60139-15.14635c.32961-.3205.44209-.77251.29929-1.20894-.14182-.4374-.4998-.73744-.95656-.80369l-21.55987-3.12026c-.87636-.12664-1.63242-.67412-2.02365-1.46417l-9.64291-19.45899c-.20344-.41207-.60054-.65756-1.0622-.65756Z"></path>
    </symbol>
    <symbol id="d" viewBox="0 0 914.663 626.977">
      <path fill="#7c4b33" d="m697.11609,325.65238s11.59713-47.72158,34.79138-59.32953c17.93322-8.97498,32.78521-29.51534,38.60016-38.37171,2.13228-3.24754,6.01027-4.93782,9.81309-4.15478,6.19303,1.2752,13.56046,6.59883,9.57238,25.75946-6.44285,30.95454-32.21424,42.56249-19.32854,41.27272s47.74451-14.41997,61.85134-24.50568c18.03997-12.89772,25.67637-25.51228,47.67707-27.08522,18.03997-1.28977,9.01999,16.76704,9.01999,16.76704,0,0,16.7514-6.44886,23.19425,0,6.44285,6.44886-1.28857,14.1875-11.59713,20.63636,0,0,27.05996,5.15909-2.57714,27.08522,0,0,16.7514,0,5.15428,14.1875-11.59713,14.1875-28.34853,34.82386-28.34853,34.82386,0,0-33.50281,21.92613-57.98563,28.37499-16.92735,4.45872-43.09431,13.23329-57.63263,18.22438-7.68887,2.63963-16.00448,2.85578-23.7948.53322-13.06596-3.8954-32.53144-11.86688-42.27524-26.49624-15.46283-23.2159,3.86571-47.72158,3.86571-47.72158Z"></path>
      <path fill="#ffcc83" d="m634.01487,597.00763c-4.71621,1.35425-9.69007,2.07651-14.83145,2.07651H64.77638l40.126-349.69602c1.24995-10.97598,8.55612-20.32683,18.89047-24.19614l62.89508-23.52544,1.68802-.63198.65718-.02582,180.68318-6.95189,118.71592,39.86691,129.308,331.56183s6.94533,12.78161,16.27464,31.52204Z"></path>
      <path fill="#7c4b33" d="m332.20757,158.93687l26.09132,42.064s39.08081,43.90638-31.1139,40.15937c-70.19471-3.74701-97.4187-47.41247-97.4187-47.41247,0,0,40.74129-49.23399,35.81726-74.35038l66.62402,39.53948Z"></path>
      <polygon fill="#f2f2f2" points="386.274 199.231 387.59 392.661 388.294 495.982 334.608 416.781 188.375 201.046 226.788 191.516 314.972 222.9 316.695 223.423 323.392 218.018 362.91 186 386.274 199.231"></polygon>
      <path fill="#ffcc83" d="m777.7161,406.04384c-1.71382,1.26403-3.50487,2.4506-5.37331,3.54687l-49.66144,39.05435-130.73829,102.82063c-9.99931,5.89427-21.31291,8.92528-32.7039,8.92528-5.66974,0-11.36519-.74809-16.93182-2.27001-16.7643-4.56577-38.7086-46.67687-47.13582-61.89617l-97.93129-176.69883c-17.26686-31.13513-6.03057-70.3958,25.08841-87.66588,31.10609-17.2829,70.33015-6.03613,87.58403,25.11191l65.85885,118.82675,75.81939-44.70356,49.3522-29.09726,76.773,104.04593Z"></path>
      <path fill="#f90065" d="m387.85939,391.37129l.70437,103.32082-53.6859-79.20057c-1.0069-55.52931-5.03361-131.82902-5.03361-131.82902l17.71128-3.91254,40.30385,111.62131Z"></path>
      <polygon fill="#f90065" points="306.966 250.312 329.845 283.652 347.548 279.742 353.723 232.167 330.897 215.062 316.784 224.42 306.966 250.312"></polygon>
      <polygon fill="#f2f2f2" points="227.224 191.373 248.268 161.663 325.211 219.617 307.359 302.061 227.224 191.373"></polygon>
      <polygon fill="#f2f2f2" points="376.184 284.443 325.211 219.617 360.314 162.315 386.571 199.255 376.184 284.443"></polygon>
      <path d="m373.52132,94.61852s19.34178-23.26992,3.95016-40.99004c0,0,14.45579-40.86273-32.32965-41.21181,0,0-10.89766-19.94261-30.34266-6.1612,0,0-29.44633-22.47204-49.14656,17.76898,0,0-35.89634-7.34881-26.57289,36.63968,0,0-42.41441-1.32571-23.4755,42.30787,0,0-22.66545,20.51836,1.32277,40.15027,0,0,4.70793,35.09661,33.06277,25.70973,0,0,9.68581,34.00647,29.41859,19.48644,19.73278-14.52003,94.11297-93.69992,94.11297-93.69992Z"></path>
      <path fill="#7c4b33" d="m239.07264,112.32215c3.22121-7.32305,9.913-12.14847,17.71875-13.7495-.52429-34.52297,19.3065-58.13731,48.94683-61.37956,32.08636-3.50982,63.49731,18.17201,67.7831,57.42543,4.28578,39.25331,3.80458,71.50712-28.28189,75.01695-17.96775,1.96543-42.03218-5.50377-60.48692-19.34633-10.2918,1.35886-22.33758-.16023-30.06589-3.56603-14.22332-6.26822-21.21405-21.67003-15.61398-34.40096Z"></path>
      <path d="m249.01317,132.34933l-2.17141-.74808c2.63771-7.67656,7.61246-14.65257,14.00312-19.64228l1.41336,1.8151c-6.04621,4.71723-10.74907,11.31427-13.24506,18.57525Z"></path>
      <polygon points="256.574 133.23 251.167 123.749 253.164 122.608 258.57 132.089 256.574 133.23"></polygon>
      <ellipse cx="316.283" cy="97.843" rx="3.653" ry="5.098" transform="rotate(-6.219 316.283 97.843)"></ellipse>
      <ellipse cx="353.873" cy="92.5" rx="3.653" ry="5.098" transform="rotate(-6.219 353.873 92.5)"></ellipse>
      <path d="M355.76147 118.67846c-6.94236-1.81808-12.99987-6.41702-16.61721-12.62036-3.62002-6.19948-4.6473-13.7417-2.81665-20.68637l2.22187.58622c-1.67638 6.35921-.73653 13.26373 2.57752 18.94274 3.31305 5.67717 8.85984 9.88932 15.21444 11.55216l-.57997 2.22562ZM359.12177 166.70348c-3.89509 2.13245-8.50944 3.50087-13.75857 4.0758-18.54205 2.02744-42.4079-5.5386-60.92582-19.29256-10.20652 1.2586-22.28626-.21832-30.21372-3.71202-7.13791-3.14449-12.75674-8.59726-15.82369-15.35362-3.08545-6.79897-3.22002-14.10121-.37766-20.56181 3.13888-7.14071 9.52786-12.27812 17.61185-14.20849-.16432-34.11681 19.37398-58.25887 49.97945-61.60028l.24781 2.28541c-29.61523 3.24274-48.42752 26.87707-47.92034 60.21888l.01351.95384-.93229.19159c-7.7822 1.59735-13.94037 6.36389-16.89914 13.08478-2.5751 5.85404-2.44348 12.4891.36777 18.68549 2.8326 6.23984 8.03861 11.28338 14.6576 14.20138 7.69609 3.39024 19.53126 4.78772 29.45282 3.47658l.4651-.06046.37611.2807c17.84909 13.389 41.82945 21.07694 59.67283 19.12517 6.06768-.66349 11.20859-2.44005 15.27073-5.27042l1.3125 1.88471c-.8195.5733-1.67912 1.10385-2.57685 1.59533Z"></path>
      <path d="m256.80888,97.59609s32.16839,61.96143,41.29852,75.57586c13.24473,19.74994,43.12358,20.57459,65.77519,8.17347,22.65161-12.40112,9.04119-106.33524,9.04119-106.33524l-12.08643-2.45642c4.52346,17.7747,12.59813,54.4689,4.01513,56.71321,0,0-32.12107-9.41567-65.42061,1.45097,0,0-8.89817-4.26177-24.24724-30.90886l-18.37576-2.21299Z"></path>
      <path fill="#fff" d="m347.12129,131.92995l-28.88608-.46043s9.46946,21.81679,18.05246,19.57248,10.83362-19.11205,10.83362-19.11205Z"></path>
      <path d="M338.60298 151.3434c-.63597.34818-1.30942.62338-2.02657.80985-9.26562 2.42386-18.38673-17.90087-19.39388-20.22602l-.71189-1.63582 31.96033.50971-.16905 1.28152c-.09029.66309-2.1084 15.12705-9.65894 19.26076Zm-18.56926-18.69506c3.09923 6.53493 10.23294 18.77876 15.96427 17.28064 6.4151-1.69747 9.05882-13.01374 9.77239-16.87062l-25.73666-.41002ZM363.5179 77.45914s-18.13621-6.26241-16.78045-21.7325c0 0-8.12963 19.17859-24.53925 13.43455 0 0-18.16718 29.58315-47.86874 33.57071 0 0-29.87885-.82465-24.06994-26.09664 5.80891-25.27198 24.31038-53.44859 47.75431-53.57774 23.44392-.12914 58.66238 14.95471 65.88962 28.18049 7.22724 13.22578 6.58554 28.9297 6.58554 28.9297l-6.97109-2.70858Z"></path>
      <polygon points="307.043 305.916 246.404 219.824 248.281 218.5 305.95 300.372 324.937 216.933 377.089 283.734 375.279 285.15 326.104 222.163 307.043 305.916"></polygon>
      <polygon points="382.767 248.737 380.479 248.528 384.985 199.014 387.273 199.224 382.767 248.737"></polygon>
      <polygon points="389.715 494.638 387.821 495.941 186.688 201.667 188.376 201.035 189.033 201.009 389.715 494.638"></polygon>
      <path d="m346.15006,494.67119c-49.39102-36.98079-130.73143-154.73765-131.54787-155.92274l-.35966-.52358,12.62708-29.42192-40.91436-8.34418-15.40537-90.0282,2.26405-.38815,15.14052,88.47575,42.14009,8.5946-13.24026,30.85175c5.96213,8.59636,83.25949,119.36601,130.67131,154.86508l-1.37553,1.8416Z"></path>
      <polygon points="410.334 491.662 408.113 491.075 450.348 330.567 416.199 316.664 442.435 293.508 414.8 214.088 416.97 213.332 445.111 294.209 420.501 315.934 453.085 329.2 452.827 330.177 410.334 491.662"></polygon>
      <polygon points="604.11 537.975 512.041 300.285 514.182 299.454 606.251 537.145 604.11 537.975"></polygon>
      <path d="m398.04299,547.35102c-5.25246,1.1603-10.46947-2.17336-11.62869-7.43073-1.15922-5.25736,2.17133-10.47924,7.4238-11.63954s10.46947,2.17336,11.62869,7.43073c1.15922,5.25736-2.17133,10.47924-7.4238,11.63954Zm-3.70951-16.82357c-4.01526.887-6.56074,4.87798-5.67457,8.89699s4.87344,6.56687,8.8887,5.67987,6.56074-4.87798,5.67457-8.89699-4.87344-6.56687-8.8887-5.67987Z"></path>
      <path fill="#7c4b33" d="m329.87376,499.77166l131.43409,3.86932,60.56277,19.34659s40.69957,27.90298,45.09993,29.66477c12.8857,5.15909,11.59713,25.79545,0,24.50568,0,0,3.86571,20.63636-16.7514,19.34659,0,0-3.86571,15.47727-20.61711,11.60795-16.7514-3.86932-42.5228-18.05681-42.5228-18.05681,0,0,42.5228,21.92613,36.07995,28.37499-6.44285,6.44886-7.73142,15.47727-38.65709,0-31.01145-15.5202-36.07995-18.05681-36.07995-18.05681,0,0-46.3885,20.63636-81.17988,10.31818-5.90809-1.75218-11.11018-3.2812-15.67565-4.61233-26.40903-7.6999-46.57256-29.63363-51.05847-56.79734-3.19091-19.32203,1.7419-39.35381,29.36561-49.51076Z"></path>
      <path fill="#ffcc83" d="m166.22543,446.89099l155.91692,36.16519-15.44994,132.73053c-19.08371-1.16083-245.18905-15.47727-245.18905-15.47727-19.7022-.90286-37.92259-10.78256-49.41661-26.82733-11.50692-16.03186-15.02469-36.46181-9.57406-55.44731l82.53286-253.00174c9.84469-34.21762,61.85134-55.46022,68.08805-37.46788,12.70562,36.65456,48.70791,99.97028,38.86322,134.20081l-25.77139,85.12498Z"></path>
      <polygon fill="#f2f2f2" points="322.142 483.005 306.68 615.851 372.397 618.431 381.417 494.613 322.142 483.005"></polygon>
      <path d="m166.22606,448.18076c-.12395,0-.24979-.01763-.37436-.05542-.68078-.20657-1.06584-.92702-.85947-1.60844l25.77139-85.12498c.207-.68141.92931-1.06557,1.60694-.86027.68078.20657,1.06584.92702.85947,1.60844l-25.77139,85.12498c-.16862.55672-.68015.91569-1.23257.91569Z"></path>
      <path d="M381.41781 495.90235c-.0906 0-.18246-.00882-.27432-.02897l-261.57962-56.74999c-.69525-.15115-1.13694-.8376-.98656-1.53412.151-.69653.83996-1.13611 1.53269-.98748l261.57962 56.74999c.69525.15115 1.13694.8376.98656 1.53412-.13087.60458-.66505 1.01645-1.25837 1.01645ZM372.39782 619.72051c-.02517 0-.05033-.00126-.07613-.00252l-310.54526-18.05681c-.71035-.04156-1.25271-.65118-1.21181-1.36157.04153-.71164.63296-1.24569 1.36155-1.21294l310.54526 18.05681c.71035.04156 1.25271.65118 1.21181 1.36157-.04027.68645-.60842 1.21546-1.28542 1.21546Z"></path>
      <path d="M311.83568 573.2887c-.04971 0-.10004-.00252-.15038-.00882-.70657-.08187-1.2137-.72172-1.13127-1.42958l10.30856-88.9943c.08179-.70786.72293-1.21546 1.42825-1.13233.70657.08187 1.2137.72172 1.13127 1.42958l-10.30856 88.9943c-.07613.65748-.63296 1.14115-1.27787 1.14115ZM275.10956 596.5046c-7.46024 0-13.52998-4.91852-13.52998-10.96307s6.06974-10.96307 13.52998-10.96307 13.52998 4.91852 13.52998 10.96307-6.06974 10.96307-13.52998 10.96307Zm0-19.34659c-6.03954 0-10.95284 3.761-10.95284 8.38352s4.9133 8.38352 10.95284 8.38352 10.95284-3.761 10.95284-8.38352-4.9133-8.38352-10.95284-8.38352ZM685.23016 461.67803c-.87582 0-1.74032-.08061-2.58343-.24561-3.28686-.63859-5.85079-2.45359-7.21863-5.10871-1.36848-2.65386-1.35967-5.79642.02454-8.84829 1.33702-2.94733 3.81474-5.4702 6.97703-7.10257 3.16291-1.63489 6.65111-2.19538 9.82723-1.57443 3.28686.63859 5.85079 2.45359 7.21863 5.10871 1.36848 2.65386 1.35967 5.79642-.02454 8.84829-1.33702 2.94733-3.81474 5.4702-6.97703 7.10257-2.32295 1.20034-4.8227 1.82004-7.2438 1.82004Zm4.4389-20.54693c-2.01024 0-4.10102.52397-6.05779 1.53412-2.6495 1.36786-4.71322 3.45493-5.81178 5.87703-1.05137 2.31756-1.08031 4.66157-.08116 6.59875.99914 1.9397 2.92382 3.27355 5.41979 3.75974 2.60986.50508 5.5041.03401 8.15423-1.33512 2.6495-1.36786 4.71322-3.45493 5.81178-5.87703 1.05137-2.31756 1.08031-4.66157.08116-6.59875v-.00126c-.99914-1.93844-2.92382-3.27229-5.41979-3.75848-.68267-.13225-1.38421-.19901-2.09644-.19901Z"></path>
      <path fill="#f2f2f2" d="m777.7161,406.04384c-1.71382,1.26403-3.50487,2.4506-5.37331,3.54687l-49.66144,39.05435-71.09044-117.54988,49.3522-29.09726,76.773,104.04593Z"></path>
      <path d="m551.50899,392.72055c-.43917,0-.86702-.2242-1.10799-.62851-.3643-.61214-.16485-1.40439.44672-1.7684l146.89693-87.70453c.61094-.36401,1.40245-.16626,1.76675.44588s.16485,1.40439-.44672,1.7684l-146.89693,87.70453c-.207.12344-.43414.18263-.65876.18263Z"></path>
      <path d="M707.4259 424.96486c-.44043 0-.86953-.22546-1.11051-.63355l-54.11992-91.57385c-.36241-.61214-.15918-1.40313.45301-1.76588.61283-.36149 1.40308-.16122 1.76549.45344l54.11992 91.57385c.36241.61214.15918 1.40313-.45301 1.76588-.20574.12218-.43225.18011-.65498.18011ZM743.01886 349.70336c-.23091 0-.46497-.06172-.67574-.19271-.60528-.37408-.7934-1.16886-.41967-1.7747 10.01221-16.23174 17.3592-33.86409 21.83647-52.40834.16799-.69149.8645-1.11847 1.55534-.9497.6921.16752 1.1168.86405.95007 1.5568-4.54145 18.8075-11.99351 36.69176-22.14855 53.15651-.24412.3955-.66568.61214-1.09793.61214ZM827.58879 290.82852h-11.9243c-.71224 0-1.28857-.57687-1.28857-1.28977s.57633-1.28977 1.28857-1.28977h11.26995l58.98603-32.08813c.62289-.33756 1.40811-.10832 1.74787.51767s.10822 1.40943-.51719 1.74951l-59.56237 32.4005ZM839.18591 310.17511h-11.9243c-.71224 0-1.28857-.57687-1.28857-1.28977s.57633-1.28977 1.28857-1.28977h11.26995l58.98603-32.08813c.62289-.33756 1.40811-.10832 1.74787.51767s.10822 1.40943-.51719 1.74951l-59.56237 32.4005ZM837.89734 337.26033h-11.9243c-.71224 0-1.28857-.57687-1.28857-1.28977s.57633-1.28977 1.28857-1.28977h11.26995l58.98603-32.08813c.62289-.33756 1.40811-.10832 1.74787.51767s.10822 1.40943-.51719 1.74951l-59.56237 32.4005ZM490.9242 593.39227c-.20071 0-.40394-.0466-.59458-.14611l-36.48388-19.03422-2.75457-6.89348c-.26426-.66126.05726-1.41195.7179-1.67645.66316-.2645 1.41063.05794 1.67552.7192l2.39971 6.00424 35.637 18.59338c.63107.32874.87582 1.1084.54676 1.73943-.22965.4421-.67889.69401-1.14386.69401ZM550.2179 597.79437c-.21455 0-.43225-.0529-.63233-.16626l-80.23422-45.33601-5.33045-10.67085c-.31837-.63733-.0604-1.41195.57633-1.73061.63799-.3174 1.41063-.0592 1.729.57687l4.97811 9.96551 79.54841 44.94807c.61975.35015.83807 1.13737.48825 1.75706-.23657.42069-.67323.65622-1.12309.65622ZM566.9693 578.44779c-.21266 0-.42847-.0529-.62793-.16374l-76.43709-42.79299-4.03181-10.76028c-.24979-.66756.08809-1.41069.75439-1.66134.66756-.24561 1.40874.08817 1.65916.75447l3.6996 9.87608 75.61412 42.332c.621.34763.84311 1.13359.49517 1.7558-.23594.42195-.67386.66-1.12561.66Z"></path>
    </symbol>
    <symbol id="e" viewBox="0 0 1222.877 653.169">
      <path fill="#ff9996" d="m201.12108,212.13739l-81.0528-7.24983S43.85446,121.51449,12.40113,134.80585c-31.45332,13.29136,4.83897,44.7073,21.77538,54.37374,16.93641,9.66644,56.85793,53.16543,56.85793,53.16543l9.67795,105.12256,100.40869,48.33221,110.08663-37.45746-110.08663-146.20494Z"></path>
      <path fill="#ffcc83" d="m164.81666,397.33356l-21.47197,37.51285c-2.368,4.13705-8.54381,3.42973-9.91279-1.13531l-12.01047-40.05047,27.6819-326.28137c1.01546-11.96901,11.55299-20.84959,23.53624-19.83534h.00004c11.98325,1.01425,20.8744,11.53926,19.85894,23.50827l-27.6819,326.28137Z"></path>
      <path fill="#ff9996" d="m62.00061,278.59418s-20.56563-15.70797-1.20974-31.41594c19.35589-15.70797,41.13127-14.49966,41.13127-14.49966,0,0,24.19486-1.20831,32.66307,16.91627,8.4682,18.12458-72.58459,28.99933-72.58459,28.99933Z"></path>
      <path fill="#ff9996" d="m83.77598,324.50978s-35.08255-18.12458-27.82409-43.49899c4.82949-16.88313,24.11907-25.74243,36.48836-29.78113,6.58851-2.15122,13.52797-2.95062,20.43304-2.34529,11.29384.99007,28.97943,3.94922,33.80934,12.79354,7.25846,13.29136,0,28.99933,0,28.99933l-62.90665,33.83255Z"></path>
      <path fill="#ff9996" d="M123.77496 358.56886s-48.46718-20.76772-44.83795-32.85078 19.35589-38.66577 42.34101-41.08238c13.7518-1.44584 25.33844 1.00097 32.42823 3.20009 5.37879 1.6684 9.64729 5.8834 11.24074 11.27906 1.66436 5.63577 2.11407 12.94105-3.74744 18.14509-10.88769 9.66644-18.14615 9.66644-18.14615 9.66644l-19.27844 31.64247ZM311.20771 358.34233s-15.72666-112.37239-22.98512-118.41392c-4.97492-4.14084-21.8841-27.01323-32.0311-40.99488-5.16276-7.11382-11.2319-13.51989-18.06715-19.05049-10.28179-8.31928-25.95906-21.43159-35.40146-31.38876-9.46166-9.97748-26.43581-5.09832-28.69973 8.45703-1.33767 8.00937.55856 19.46776 8.95178 35.85319 15.11872 29.5151 16.18363 57.47053 14.28293 76.11377-1.67777 16.45651 2.73381 32.94864 12.5366 46.28125l39.71635 54.01755 61.6969-10.87475Z"></path>
      <path d="M135.16762 254.11538c-.04785 0-.09628-.00295-.14472-.00826-.66335-.07906-1.13709-.68026-1.05853-1.34282.10514-.87968-.0508-1.74874-.47551-2.65851-8.01868-17.16289-31.27316-16.23247-31.50708-16.22008l-.06202.00295-.0638-.00354c-.21797-.00944-21.55918-.98116-40.30252 14.23063-.51686.42125-1.28004.34338-1.7012-.17582-.42176-.51742-.3426-1.27851.17603-1.69918 19.18577-15.5705 40.37105-14.84776 41.90272-14.77165 1.47083-.05251 25.26698-.5422 33.75054 17.61483.61255 1.31096.84292 2.64494.6858 3.96593-.07325.61418-.59601 1.06553-1.1997 1.06553ZM134.46588 342.22727c-.21442 0-.43121-.05664-.62791-.17641-.57061-.34692-.75195-1.08972-.40404-1.66024l8.93958-14.67253h.67989c.06143-.00059 7.01568-.19293 17.34221-9.36142 4.40658-3.91224 5.54781-9.59859 3.39118-16.90034-1.47142-4.98249-5.37414-8.89532-10.43935-10.46647-7.15213-2.21837-18.49879-4.56831-31.94301-3.15233-9.60234 1.00948-28.78634 9.73016-39.77444 36.01257-.25754.61536-.9652.90623-1.58247.64958-.61669-.25724-.9079-.96464-.65036-1.58059 5.37532-12.85771 20.2189-35.2208 41.75445-37.48519 13.85061-1.45492 25.54401.96228 32.91293 3.24791 5.8402 1.81187 10.34189 6.3318 12.0425 12.09131 2.41063 8.16078.99178 14.86605-4.10356 19.39011-9.29813 8.25459-16.09053 9.67706-18.23948 9.92132l-8.26323 13.56275c-.22801.37347-.62673.57996-1.0349.57996Z"></path>
      <path d="M148.22553 287.56502c-.11223 0-.22624-.01593-.33965-.04897-.64149-.18703-1.0095-.85785-.82225-1.49858 1.50214-5.13648 3.31203-15.05367-1.44307-23.76078-4.63518-8.48823-22.57341-11.26768-32.85327-12.1686-6.76995-.59412-13.48025.17759-19.95131 2.29035-11.51442 3.75943-26.65275 10.85351-33.38253 23.3-.31661.58645-1.05085.80652-1.63918.4891-.58774-.31742-.80689-1.05019-.48969-1.63723 7.1096-13.14799 22.82682-20.55299 34.76003-24.4493 6.78413-2.21365 13.81872-3.02135 20.91414-2.40009 13.14651 1.15226 29.84959 4.41551 34.76594 13.41821 5.17153 9.46997 3.24823 20.10165 1.64154 25.59566-.15417.52745-.63677.87024-1.16072.87024ZM209.79543 316.408c-.37214 0-.73896-.17051-.97642-.49323-9.94907-13.53208-14.48266-30.26604-12.76433-47.1186 1.36864-13.42647 1.3651-34.24849-6.42676-57.19744-.21501-.63188.12405-1.31804.75668-1.5328.63441-.20886 1.31961.12508 1.53403.75637 7.93244 23.36077 7.93599 44.55331 6.54254 58.21872-1.6569 16.25548 2.71424 32.39474 12.30831 45.44361.39517.53748.2794 1.29385-.25932 1.68915-.2156.15812-.46665.23423-.71474.23423Z"></path>
      <path fill="#ff9996" d="m717.07132,286.29963s-24.4563,48.40828-103.11833,61.41371c-78.63981,13.00557-40.82752-37.20964-40.82752-37.20964l12.12762-24.13722,11.30125-22.48631,69.50508-49.32298c-.04471.42386-.04471.82538-.04471,1.24924-.29036,26.59117,51.05663,70.4932,51.05663,70.4932Z"></path>
      <path d="m666.05941,214.55719c-.04471.42386-.04471.82538-.04471,1.24924-6.43235,26.72502-22.78121,62.70775-64.41275,70.71623-6.85671,1.31623-12.23926,1.18239-16.34887-.15617l11.30125-22.48631,69.50508-49.32298Z"></path>
      <polygon fill="#f2f2f2" points="709.975 274.776 709.685 279.621 708.584 298.422 701.217 423.808 701.06 426.491 700.975 428.098 700.83 430.49 687.752 653.169 528.913 653.169 537.865 484.284 543.454 378.739 546.261 325.742 546.454 322.154 547.337 305.431 554.439 307.316 560.983 309.043 572.089 311.992 611.708 322.48 613.426 322.939 613.498 322.903 614.502 322.407 704.277 277.615 706.443 276.54 709.975 274.776"></polygon>
      <polygon fill="#f90065" points="646.875 653.169 568.605 653.169 603.627 363.429 618.253 363.429 618.277 363.683 646.875 653.169"></polygon>
      <polygon fill="#f2f2f2" points="174.507 388.55 308.788 335.385 325.725 369.217 199.911 429.632 174.507 388.55"></polygon>
      <path fill="#ff9996" d="m705.78699,193.12329c-4.08147-7.21657-11.49061-11.50138-19.71834-12.34798-3.01376-35.63844-25.92963-57.93713-56.88014-58.22737-33.50466-.3142-63.71732,25.26829-64.1018,66.16991-.38448,40.90151,3.43421,74.09749,36.93899,74.41169,18.76197.17594,42.84982-10.00054,60.48684-26.16878,10.77072.34102,23.05683-2.46499,30.68894-6.77119,14.04628-7.92535,19.68112-24.52048,12.58551-37.06628Z"></path>
      <path d="m697.57908,214.78812c-3.32182-7.22394-8.85964-13.53835-15.59271-17.781l1.27376-2.01512c7.11694,4.48664,12.9732,11.16378,16.48696,18.80273l-2.16802.9934Z"></path>
      <polygon points="689.86 216.475 687.683 215.506 692.292 205.175 694.469 206.145 689.86 216.475"></polygon>
      <ellipse cx="624.543" cy="186.149" rx="5.281" ry="3.792" transform="rotate(-89.46 624.543 186.149)"></ellipse>
      <ellipse cx="585.164" cy="184.512" rx="5.281" ry="3.792" transform="rotate(-89.46 585.164 184.512)"></ellipse>
      <path d="m585.90878 211.68918-.82882-2.23297c6.39281-2.36913 11.68853-7.28167 14.52615-13.47627 2.8398-6.19568 3.09935-13.40764.71322-19.7885l2.23345-.83437c2.60642 6.97014 2.32287 14.84764-.77865 21.61409-3.09935 6.76536-8.88145 12.12995-15.86534 14.71802ZM601.42296 229.81657l-.06112-2.38111c9.69069-.25053 19.15449-6.62921 23.01505-15.50991l2.18547.94765c-4.28151 9.85558-14.38438 16.66452-25.1394 16.94337Z"></path>
      <path d="m602.52224,264.322c-.17013,0-.33807,0-.5082-.00218l.02181-2.38111c.15486.00109.30972.00218.46676.00218,18.56119,0,42.28287-10.34684,59.20386-25.85783l.35988-.32787.4842.01525c10.3646.33004,22.46536-2.32992,30.06433-6.61832,6.53895-3.68822,11.39626-9.42206,13.6777-16.14603,2.26617-6.67496,1.71871-13.52855-1.54422-19.29725-3.74495-6.62267-10.59798-10.90562-18.80111-11.74871l-.98368-.1013-.08288-.9836c-2.90959-34.41829-24.77515-56.84606-55.70319-57.13689l.02181-2.38111c31.95534.29955,54.62355,23.16519,57.97154,58.34923,8.54774,1.15679,15.67559,5.79375,19.65392,12.83034,3.601,6.36779,4.21389,13.9087,1.72743,21.23503-2.47119,7.2784-7.71456,13.47736-14.76389,17.45423-7.82362,4.41584-20.12068,7.17819-30.82553,6.93856-17.56006,15.94125-41.17268,26.15738-60.44055,26.15738Z"></path>
      <polygon fill="#f90065" points="586.847 342.601 604.194 363.679 618.816 363.679 641.357 334.577 613.431 322.937 586.847 342.601"></polygon>
      <polygon fill="#f2f2f2" points="583.073 276.428 613.431 322.937 578.606 385.737 551.804 298.736 583.073 276.428"></polygon>
      <path fill="#b8c2d8" d="m509.6056,305.1769s-206.17931,226.34084-223.1568,277.04982c-15.51814,46.35011,52.38439,74.33432,101.57974,63.22793,29.00029-6.54713,52.808-25.33447,66.06134-49.08004l117.28568-156.94352-61.76996-134.25418Z"></path>
      <polygon fill="#f2f2f2" points="647.397 385.737 613.431 322.937 692.512 258.582 709.97 274.771 647.397 385.737"></polygon>
      <path fill="#b8c2d8" d="m957.50092,636.71171c-2.14127,2.35614-4.50021,4.50696-7.0529,6.42819-4.04035,3.03278-8.54071,5.46149-13.39164,7.16524-.06055.03621-.12109.0604-.19375.0725-5.16563,1.81246-10.73027,2.79118-16.52499,2.79118h-267.05082c2.35894-131.5361,28.05395-269.93543,43.65959-342.73583,1.6332-7.61231,3.15741-14.49966,4.52443-20.5895,1.02833-4.53114,1.95978-8.61522,2.80661-12.22804.20571-.89413.41135-1.76415.60487-2.59789.30244-1.31701.77425-2.54951,1.37913-3.68532,3.4357-6.36779,11.20223-9.54564,18.36389-6.88735l27.99348,10.39147,27.2554,1.11162,66.74173,2.70659,43.24832,139.64385.09658.30208,49.61158,160.18504.90731,2.94827,17.02117,54.97789Z"></path>
      <path d="m736.90427,354.12536c-.14516,15.14003.43549,33.0834,2.20174,54.13206l.07258.83373-38.11902,17.39955-2.68567,1.2325,2.60098.37457,29.44518,4.28947-.16938,1.18419c-.25407,1.69158-16.11379,110.29407-22.31978,219.59739h-2.38323c5.8673-103.63637,20.42047-206.58399,22.17461-218.76366l-26.89257-3.91497-10.803-1.57078,11.19012-5.11111,35.44546-16.17923c-5.68581-68.48674,1.31865-104.03506,3.96792-117.45938.22985-1.19621.43556-2.21115.58073-3.04488l2.3469.41078c-.14516.85792-.35087,1.88495-.59276,3.09326-1.39123,7.10484-4.02847,20.45667-5.3229,41.71072-.39924,6.50069-.66534,13.75052-.73793,21.78578Z"></path>
      <path fill="#b8c2d8" d="m562.37459,295.34127c-.33869,3.23825-.81051,7.86608-1.39123,13.70221-.42338,4.30156-.90731,9.25559-1.43952,14.82586v.01209c-.0968,1.01501-.1936,2.05413-.2904,3.10535-1.74203,18.76494-3.90745,43.75276-6.06075,72.9212-1.56062,21.31452-3.10905,44.86438-4.47606,69.84011-3.10905,56.81446-5.26243,121.07213-4.4277,183.42073h-108.76798l9.09729-42.84653,11.00863-51.86044,44.26446-208.44476,9.47231-44.5744v-.01209h.01211l.30244-.08452,30.95736-8.8448,16.99688-5.08699c1.27022-.38667,2.52832-.04831,3.43563.71293.89527.73705,1.4396,1.90907,1.30654,3.21406Z"></path>
      <polygon points="547.555 322.613 546.261 325.742 533.401 356.892 501.331 434.586 525.683 454.777 499.081 462.196 503.823 529.825 512.473 653.169 510.09 653.169 501.645 532.749 496.565 460.42 520.663 453.714 498.464 435.299 532.046 353.944 545.354 321.707 546.454 322.154 547.555 322.613"></polygon>
      <path d="m662.91642,202.28148c-.93624,1.28021-3.0134.52416-2.86269-1.05405.69464-7.27426-.61148-14.62495,3.42301-20.72318,3.21859-4.86496,7.20732-14.77105,2.23345-20.07715-3.76063-4.0118-12.01229-2.46444-20.10105-2.23079-24.04366.6945-68.78814,1.23557-87.10454-22.30795-5.60947-7.2103-11.22527-24.1851-11.24108-33.31635-.01581-9.13124,2.17817-18.1054,4.35873-26.97311,18.69953,14.05249,40.77911,23.5855,63.83899,27.5629,14.89667,2.5694,30.47887,2.94241,44.24308,9.18596,13.76422,6.24355,25.42927,20.86989,21.92655,35.55817,10.4485-2.75702,22.47031,2.7019,27.25961,12.37816,4.69464,9.48499-7.4451,26.91256-7.4451,26.91256-6.28031-4.1819-14.43475-6.84704-22.3345-2.23079-6.69711,3.91348-11.46829,10.85306-16.19447,17.31564Z"></path>
      <polygon points="578.29 388.763 558.412 324.235 560.691 323.534 578.923 382.711 612.038 322.987 589.189 287.981 591.187 286.68 614.821 322.887 578.29 388.763"></polygon>
      <polygon points="647.374 388.202 612.381 323.503 614.479 322.371 647.418 383.272 679.225 326.866 681.302 328.036 647.374 388.202"></polygon>
      <polygon points="456.798 558.71 454.465 558.215 498.73 349.778 501.064 350.273 456.798 558.71"></polygon>
      <path fill="#ff9996" d="m983.82495,197.62104l31.95634-78.07425c2.46032-6.01094,5.47377-11.76163,8.99541-17.19422,14.33966-22.12083,52.97613-77.50096,77.28356-72.33046,30.30436,6.44611-29.93218,78.6952-29.93218,78.6952,0,0,67.81263-61.93531,80.43944-63.22453,12.62682-1.28922,23.99095,19.33834-18.94023,67.03957-42.93118,47.70123-49.24459,47.70123-29.04168,41.25512,20.20291-6.44611,74.49822-52.85812,92.17576-37.38745,17.67754,15.47067-68.18481,70.90724-68.18481,70.90724,0,0,57.23342-25.00249,70.58267-9.00242,12.09743,14.49966-28.41952,31.37967-61.6969,47.12391-22.98512,10.87475-21.66872,11.18047-36.2923,25.37441-7.66753,7.44226-15.2322,18.85639-25.3381,21.62957-29.92296,8.21124-91.6736-1.12163-92.007-74.81169Z"></path>
      <path fill="#b8c2d8" d="m409.10684,500.55589c-3.22638-2.56526-87.01144-142.21356-87.01144-142.21356l-129.44253,62.83188,86.90184,172.99654c4.89341,13.90046,13.58511,26.60091,25.92088,36.40923,35.39371,28.14218,87.28462,21.84906,115.90165-14.05614,28.61687-35.90512,23.12332-87.82578-12.2704-115.96796Z"></path>
      <path d="m408.43955,501.39413c-.59113-.46972-2.38709-1.89734-58.09498-93.21751l1.83117-1.11497c47.81513,78.38203,56.62974,91.71231,57.62837,92.68196l-1.36456,1.65052Z"></path>
      <path fill="#b8c2d8" d="m887.04549,320.88487c-8.4682-12.08305-53.2287-91.8312-116.46476-37.86495-54.91436,46.86444-33.04023,88.38668-8.13879,136.94599,25.40461,49.54052,88.31126,132.91358,88.31126,132.91358,0,0,74.69513,68.03146,138.97686.19502,43.69436-46.11062-23.60754-127.07506-23.60754-127.07506l-79.07703-105.11458Z"></path>
      <path fill="#f9f9f9" d="m932.9406,69.59293s11.89798,67.40918,77.11433,104.60088c65.21635,37.1917,97.76841,74.74544,106.12572,112.22774,0,0,72.75593-57.78409,106.69654-80.64178,0,0-.11873-64.30288-80.74847-102.94482-67.40145-32.30226-68.31169-89.04873-67.63816-101.60708.05267-.9821-1.05705-1.58125-1.85047-.99878-8.77489,6.44186-43.71733,31.9889-65.83752,46.62401-24.95006,16.5074-73.86196,22.73982-73.86196,22.73982Z"></path>
      <path fill="#b8c2d8" d="M989.13057 96.34304c-1.5488 0-3.03972-.85136-3.78399-2.32634-1.05262-2.08562-.21383-4.62849 1.87368-5.67986l76.32842-38.44098c2.09224-1.05314 4.63459-.2124 5.68721 1.87205 1.05262 2.08562.21383 4.62849-1.87368 5.67986l-76.32842 38.44098c-.61196.30798-1.26291.45429-1.90322.45429ZM1003.5577 126.59315c-1.5488 0-3.03972-.85136-3.78399-2.32634-1.05262-2.08562-.21383-4.62849 1.87368-5.67986l76.32842-38.44039c2.09224-1.05196 4.63577-.2124 5.68721 1.87205 1.05262 2.08562.21383 4.62849-1.87368 5.67986l-76.32842 38.44039c-.61196.30798-1.26291.45429-1.90322.45429ZM1019.22411 147.18095c-1.5488 0-3.03972-.85136-3.78399-2.32634-1.05262-2.08562-.21383-4.62849 1.87368-5.67986l76.32842-38.44098c2.09224-1.05255 4.63459-.2124 5.68721 1.87205 1.05262 2.08562.21383 4.62849-1.87368 5.67986l-76.32842 38.44098c-.61196.30798-1.26291.45429-1.90322.45429ZM1050.62664 164.18985c-1.5488 0-3.03972-.85136-3.78399-2.32634-1.05262-2.08562-.21383-4.62849 1.87368-5.67986l76.32842-38.44039c2.09342-1.05255 4.63577-.21299 5.68721 1.87205 1.05262 2.08562.21383 4.62849-1.87368 5.67986l-76.32842 38.44039c-.61196.30798-1.26291.45429-1.90322.45429ZM1074.77188 181.17752c-1.5488 0-3.03972-.85136-3.78399-2.32634-1.05262-2.08562-.21383-4.62849 1.87368-5.67986l76.32842-38.44039c2.09224-1.05196 4.63459-.2124 5.68721 1.87205 1.05262 2.08562.21383 4.62849-1.87368 5.67986l-76.32842 38.44039c-.61196.30798-1.26291.45429-1.90322.45429ZM1112.77601 215.81304c-1.5488 0-3.03972-.85136-3.78399-2.32634-1.05262-2.08562-.21383-4.62849 1.87368-5.67986l49.06785-24.71185c2.09342-1.05255 4.63459-.21299 5.68721 1.87205 1.05262 2.08562.21383 4.62849-1.87368 5.67986l-49.06785 24.71185c-.61196.30798-1.26291.45429-1.90322.45429ZM1077.71591 208.45937c-1.5488 0-3.03972-.85136-3.78399-2.32634-1.05262-2.08562-.21383-4.62849 1.87368-5.67986l49.06785-24.71185c2.09224-1.05314 4.63459-.2124 5.68721 1.87205 1.05262 2.08562.21383 4.62849-1.87368 5.67986l-49.06785 24.71185c-.61196.30798-1.26291.45429-1.90322.45429Z"></path>
      <path fill="#ff9996" d="m962.74895,239.24918s-5.97597-60.94434,17.00915-85.11045c17.14357-18.02441,28.23032-28.65485,35.26803-39.41153,6.07039-9.27819,18.92355-11.82305,27.77802-5.14237,4.9264,3.71695,7.87514,9.66408,4.69957,19.17949-8.4682,25.37441-21.77538,56.79035-21.77538,56.79035,0,0,15.72666,53.16543,3.62923,80.95645-12.09743,27.79102-66.68137,3.47477-66.60862-27.26194Z"></path>
      <polygon fill="#f2f2f2" points="960.968 209.887 1096.074 266.115 1074.294 321.938 946.169 252.514 960.968 209.887"></polygon>
      <path fill="#b8c2d8" d="m951.5656,236.70101l140.49131,50.57308-71.84097,241.48244c-2.1942,7.37548-5.73022,14.2776-10.50715,20.31382-13.73296,17.35322-60.27599,43.26467-98.72267,21.52086-52.48222-29.68172-48.09195-66.0768-39.31793-95.91277,8.77402-29.83597,79.8974-237.97743,79.8974-237.97743Z"></path>
      <path d="M876.1578 461.04887c-.12523 0-.25282-.02006-.37804-.06136-.63559-.20886-.98055-.89207-.77145-1.52572l35.08255-106.33087c.20911-.63365.89431-.97821 1.52754-.76935.63559.20886.98055.89207.77145 1.52572l-35.08255 106.33087c-.16776.50798-.64149.83071-1.14949.83071ZM866.48103 574.62898c-.38395 0-.762-.1829-.99709-.52273l-96.77946-140.16282c-.37923-.54928-.241-1.30211.30952-1.68089.54816-.37996 1.30189-.24131 1.6823.30857l96.77946 140.164c.37923.54869.241 1.30152-.30952 1.6803-.20911.14396-.44893.21358-.68521.21358ZM1031.92287 215.76467c-.58951 0-1.10578-.43069-1.19557-1.03013-2.38641-15.98527-6.12078-28.71082-6.15859-28.83767l-.12286-.41476.16894-.39825c.13232-.31388 13.38633-31.66432 21.7423-56.70185 2.58252-7.74071 1.1424-13.74034-4.28136-17.83312-3.90686-2.94701-8.77891-4.09337-13.71121-3.23906-5.04926.87909-9.54209 3.82374-12.32544 8.07818-5.66949 8.66463-14.06563 17.38178-25.68578 29.44713-2.99955 3.11516-6.23419 6.47281-9.71811 10.13608-.45956.48261-1.2251.50267-1.70947.04366-.48437-.4596-.50445-1.22483-.04371-1.70862 3.48746-3.66681 6.72447-7.02799 9.72756-10.1467 11.52918-11.97036 19.85916-20.61907 25.40461-29.09314 3.1484-4.81316 8.2272-8.14367 13.93449-9.13722 5.59979-.97526 11.13814.33571 15.5849 3.69159 6.25546 4.71876 8.02518 11.81697 5.11778 20.52585-7.87514 23.59912-20.07536 52.76129-21.64188 56.48414.6663 2.34109 3.9423 14.21706 6.11133 28.7474.09806.6602-.35796 1.27497-1.01836 1.3735-.06025.00885-.1205.01298-.17957.01298Z"></path>
    </symbol>
    <symbol id="a" viewBox="0 0 920.906 721.654">
      <path fill="#f2f2f2" d="M890.85181 0h-353.61063c-16.5986 0-30.05442 13.46733-30.05442 30.08012v396.59126c0 8.92811 11.94549 11.84703 16.08569 3.93877 21.9677-41.96089 51.09148-70.92486 96.9445-70.92486h270.63486c16.5986 0 30.05442-13.46733 30.05442-30.08012V30.08012c0-16.61279-13.45582-30.08012-30.05442-30.08012ZM383.66506 286.44292H30.05442c-16.5986 0-30.05442 13.46733-30.05442 30.08012v299.52501c0 16.61282 13.45584 30.08016 30.05447 30.08016h270.63482c45.85302 0 74.97681 28.96394 96.9445 70.92484 4.14019 7.90826 16.08569 4.98934 16.08569-3.93877v-396.59124c0-16.61279-13.45582-30.08012-30.05442-30.08012Z"></path>
    </symbol>
  </defs>
  <use xlink:href="#a" width="920.906" height="721.654" transform="translate(125.725 196.881)scale(.9864)"></use>
  <use xlink:href="#b" width="161" height="143" transform="rotate(-16.969 991.958 -595.877)scale(.9863)"></use>
  <use xlink:href="#c" width="250" height="128" transform="rotate(12.926 -2606.09 3588.62)scale(.9863)"></use>
  <use xlink:href="#d" width="914.663" height="626.977" transform="translate(34 447.41)scale(.64483)"></use>
  <use xlink:href="#e" width="1222.877" height="653.169" transform="translate(451.203 158.91)scale(.60044)"></use>
</svg>
